# xmcd CD database file
#
# Track frame offsets:
#	183
#	42428
#	92380
#	142385
#
# Disc length: 2448 seconds
#
# Revision: 0
# Processed by: cddbd v1.4PL0 Copyright (c) Steve Scherf et al.
# Submitted via: CDex 1.50beta8
#
DISCID=33098e04
DTITLE=Various Artist - John Hardy
DYEAR=1993
DGENRE=Country
TTITLE0=Smes 1
TTITLE1=Smes 2
TTITLE2=Smes 3
TTITLE3=Smes 4
EXTD=YEAR: 1993
EXTT0=
EXTT1=
EXTT2=
EXTT3=
PLAYORDER=
